<mxfile host="app.diagrams.net" modified="2024-01-17T20:33:00.770Z" agent="Mozilla/5.0 (Windows NT 10.0; Win64; x64) AppleWebKit/537.36 (KHTML, like Gecko) Chrome/120.0.0.0 Safari/537.36" etag="dRTg9pHZyk8TM5Ibtc0R" version="22.1.21" type="device">
  <diagram name="Page-1" id="10a91c8b-09ff-31b1-d368-03940ed4cc9e">
    <mxGraphModel dx="712" dy="782" grid="1" gridSize="10" guides="1" tooltips="1" connect="1" arrows="1" fold="1" page="1" pageScale="1" pageWidth="1100" pageHeight="850" background="none" math="0" shadow="0">
      <root>
        <mxCell id="0" />
        <mxCell id="1" parent="0" />
        <mxCell id="wWCb_b6wwUq6npjRhqLN-15" style="edgeStyle=orthogonalEdgeStyle;rounded=0;orthogonalLoop=1;jettySize=auto;html=1;exitX=0.5;exitY=1;exitDx=0;exitDy=0;entryX=0;entryY=0.5;entryDx=0;entryDy=0;" edge="1" parent="1" source="62893188c0fa7362-1" target="wWCb_b6wwUq6npjRhqLN-2">
          <mxGeometry relative="1" as="geometry">
            <Array as="points">
              <mxPoint x="220" y="60" />
              <mxPoint x="320" y="60" />
              <mxPoint x="320" y="350" />
            </Array>
          </mxGeometry>
        </mxCell>
        <mxCell id="62893188c0fa7362-1" value="mspw_backend" style="whiteSpace=wrap;html=1;rounded=1;shadow=1;labelBackgroundColor=none;strokeWidth=1;fontFamily=Verdana;fontSize=12;align=center;" parent="1" vertex="1">
          <mxGeometry x="160" y="30" width="120" height="60" as="geometry" />
        </mxCell>
        <mxCell id="wWCb_b6wwUq6npjRhqLN-36" style="edgeStyle=orthogonalEdgeStyle;rounded=0;orthogonalLoop=1;jettySize=auto;html=1;entryX=0;entryY=0.75;entryDx=0;entryDy=0;" edge="1" parent="1" source="62893188c0fa7362-2" target="62893188c0fa7362-8">
          <mxGeometry relative="1" as="geometry" />
        </mxCell>
        <mxCell id="wWCb_b6wwUq6npjRhqLN-37" style="edgeStyle=orthogonalEdgeStyle;rounded=0;orthogonalLoop=1;jettySize=auto;html=1;entryX=0;entryY=0.5;entryDx=0;entryDy=0;" edge="1" parent="1" source="62893188c0fa7362-2" target="wWCb_b6wwUq6npjRhqLN-22">
          <mxGeometry relative="1" as="geometry" />
        </mxCell>
        <mxCell id="wWCb_b6wwUq6npjRhqLN-38" style="edgeStyle=orthogonalEdgeStyle;rounded=0;orthogonalLoop=1;jettySize=auto;html=1;exitX=1;exitY=0.5;exitDx=0;exitDy=0;entryX=0;entryY=0.5;entryDx=0;entryDy=0;" edge="1" parent="1" source="62893188c0fa7362-2" target="wWCb_b6wwUq6npjRhqLN-23">
          <mxGeometry relative="1" as="geometry" />
        </mxCell>
        <mxCell id="wWCb_b6wwUq6npjRhqLN-39" style="edgeStyle=orthogonalEdgeStyle;rounded=0;orthogonalLoop=1;jettySize=auto;html=1;exitX=1;exitY=0.5;exitDx=0;exitDy=0;entryX=0;entryY=0.5;entryDx=0;entryDy=0;" edge="1" parent="1" source="62893188c0fa7362-2" target="wWCb_b6wwUq6npjRhqLN-26">
          <mxGeometry relative="1" as="geometry" />
        </mxCell>
        <mxCell id="wWCb_b6wwUq6npjRhqLN-40" style="edgeStyle=orthogonalEdgeStyle;rounded=0;orthogonalLoop=1;jettySize=auto;html=1;exitX=1;exitY=0.5;exitDx=0;exitDy=0;entryX=0;entryY=0.5;entryDx=0;entryDy=0;" edge="1" parent="1" source="62893188c0fa7362-2" target="wWCb_b6wwUq6npjRhqLN-35">
          <mxGeometry relative="1" as="geometry" />
        </mxCell>
        <mxCell id="62893188c0fa7362-2" value="&lt;span&gt;mspw_frontend&lt;/span&gt;" style="whiteSpace=wrap;html=1;rounded=1;shadow=1;labelBackgroundColor=none;strokeWidth=1;fontFamily=Verdana;fontSize=12;align=center;" parent="1" vertex="1">
          <mxGeometry x="170" y="440" width="120" height="60" as="geometry" />
        </mxCell>
        <mxCell id="wWCb_b6wwUq6npjRhqLN-12" style="edgeStyle=orthogonalEdgeStyle;rounded=0;orthogonalLoop=1;jettySize=auto;html=1;entryX=0;entryY=0.25;entryDx=0;entryDy=0;" edge="1" parent="1" source="62893188c0fa7362-3" target="wWCb_b6wwUq6npjRhqLN-5">
          <mxGeometry relative="1" as="geometry" />
        </mxCell>
        <mxCell id="wWCb_b6wwUq6npjRhqLN-13" style="edgeStyle=orthogonalEdgeStyle;rounded=0;orthogonalLoop=1;jettySize=auto;html=1;exitX=1;exitY=0.5;exitDx=0;exitDy=0;entryX=0;entryY=0.5;entryDx=0;entryDy=0;" edge="1" parent="1" source="62893188c0fa7362-3" target="wWCb_b6wwUq6npjRhqLN-3">
          <mxGeometry relative="1" as="geometry" />
        </mxCell>
        <mxCell id="62893188c0fa7362-3" value="&lt;span&gt;model&lt;/span&gt;" style="whiteSpace=wrap;html=1;rounded=1;shadow=1;labelBackgroundColor=none;strokeWidth=1;fontFamily=Verdana;fontSize=12;align=center;" parent="1" vertex="1">
          <mxGeometry x="360" y="30" width="120" height="60" as="geometry" />
        </mxCell>
        <mxCell id="62893188c0fa7362-4" value="" style="rounded=0;html=1;labelBackgroundColor=none;startArrow=none;startFill=0;startSize=5;endArrow=none;endFill=0;endSize=5;jettySize=auto;orthogonalLoop=1;strokeWidth=1;fontFamily=Verdana;fontSize=12" parent="1" source="62893188c0fa7362-1" target="62893188c0fa7362-3" edge="1">
          <mxGeometry x="-0.3002" y="13" relative="1" as="geometry">
            <mxPoint as="offset" />
          </mxGeometry>
        </mxCell>
        <mxCell id="wWCb_b6wwUq6npjRhqLN-43" style="edgeStyle=orthogonalEdgeStyle;rounded=0;orthogonalLoop=1;jettySize=auto;html=1;exitX=1;exitY=0.5;exitDx=0;exitDy=0;entryX=0;entryY=0.5;entryDx=0;entryDy=0;" edge="1" parent="1" source="62893188c0fa7362-8" target="wWCb_b6wwUq6npjRhqLN-28">
          <mxGeometry relative="1" as="geometry" />
        </mxCell>
        <mxCell id="wWCb_b6wwUq6npjRhqLN-44" style="edgeStyle=orthogonalEdgeStyle;rounded=0;orthogonalLoop=1;jettySize=auto;html=1;exitX=1;exitY=0.5;exitDx=0;exitDy=0;entryX=0;entryY=0.5;entryDx=0;entryDy=0;" edge="1" parent="1" source="62893188c0fa7362-8" target="wWCb_b6wwUq6npjRhqLN-7">
          <mxGeometry relative="1" as="geometry" />
        </mxCell>
        <mxCell id="62893188c0fa7362-8" value="&lt;span&gt;model&lt;/span&gt;" style="whiteSpace=wrap;html=1;rounded=1;shadow=1;labelBackgroundColor=none;strokeWidth=1;fontFamily=Verdana;fontSize=12;align=center;" parent="1" vertex="1">
          <mxGeometry x="380" y="560" width="120" height="60" as="geometry" />
        </mxCell>
        <mxCell id="wWCb_b6wwUq6npjRhqLN-41" style="edgeStyle=orthogonalEdgeStyle;rounded=0;orthogonalLoop=1;jettySize=auto;html=1;exitX=1;exitY=0.5;exitDx=0;exitDy=0;entryX=0;entryY=0.5;entryDx=0;entryDy=0;" edge="1" parent="1" source="62893188c0fa7362-9" target="wWCb_b6wwUq6npjRhqLN-6">
          <mxGeometry relative="1" as="geometry" />
        </mxCell>
        <mxCell id="wWCb_b6wwUq6npjRhqLN-42" style="edgeStyle=orthogonalEdgeStyle;rounded=0;orthogonalLoop=1;jettySize=auto;html=1;exitX=1;exitY=0.5;exitDx=0;exitDy=0;entryX=0;entryY=0.5;entryDx=0;entryDy=0;" edge="1" parent="1" source="62893188c0fa7362-9" target="wWCb_b6wwUq6npjRhqLN-27">
          <mxGeometry relative="1" as="geometry" />
        </mxCell>
        <mxCell id="62893188c0fa7362-9" value="&lt;span&gt;contreoller&lt;/span&gt;" style="whiteSpace=wrap;html=1;rounded=1;shadow=1;labelBackgroundColor=none;strokeWidth=1;fontFamily=Verdana;fontSize=12;align=center;" parent="1" vertex="1">
          <mxGeometry x="380" y="440" width="120" height="60" as="geometry" />
        </mxCell>
        <mxCell id="62893188c0fa7362-15" value="" style="rounded=0;html=1;labelBackgroundColor=none;startArrow=none;startFill=0;startSize=5;endArrow=none;endFill=0;endSize=5;jettySize=auto;orthogonalLoop=1;strokeWidth=1;fontFamily=Verdana;fontSize=12" parent="1" source="62893188c0fa7362-2" target="62893188c0fa7362-9" edge="1">
          <mxGeometry x="-0.2" y="14" relative="1" as="geometry">
            <mxPoint as="offset" />
          </mxGeometry>
        </mxCell>
        <mxCell id="wWCb_b6wwUq6npjRhqLN-16" style="edgeStyle=orthogonalEdgeStyle;rounded=0;orthogonalLoop=1;jettySize=auto;html=1;entryX=0;entryY=0.5;entryDx=0;entryDy=0;" edge="1" parent="1" source="wWCb_b6wwUq6npjRhqLN-1" target="wWCb_b6wwUq6npjRhqLN-11">
          <mxGeometry relative="1" as="geometry" />
        </mxCell>
        <mxCell id="wWCb_b6wwUq6npjRhqLN-17" style="edgeStyle=orthogonalEdgeStyle;rounded=0;orthogonalLoop=1;jettySize=auto;html=1;exitX=1;exitY=0.5;exitDx=0;exitDy=0;entryX=0;entryY=0.5;entryDx=0;entryDy=0;" edge="1" parent="1" source="wWCb_b6wwUq6npjRhqLN-1" target="wWCb_b6wwUq6npjRhqLN-10">
          <mxGeometry relative="1" as="geometry" />
        </mxCell>
        <mxCell id="wWCb_b6wwUq6npjRhqLN-1" value="&lt;span&gt;services&lt;/span&gt;" style="whiteSpace=wrap;html=1;rounded=1;shadow=1;labelBackgroundColor=none;strokeWidth=1;fontFamily=Verdana;fontSize=12;align=center;" vertex="1" parent="1">
          <mxGeometry x="360" y="170" width="120" height="60" as="geometry" />
        </mxCell>
        <mxCell id="wWCb_b6wwUq6npjRhqLN-18" style="edgeStyle=orthogonalEdgeStyle;rounded=0;orthogonalLoop=1;jettySize=auto;html=1;entryX=0;entryY=0.5;entryDx=0;entryDy=0;" edge="1" parent="1" source="wWCb_b6wwUq6npjRhqLN-2" target="wWCb_b6wwUq6npjRhqLN-9">
          <mxGeometry relative="1" as="geometry" />
        </mxCell>
        <mxCell id="wWCb_b6wwUq6npjRhqLN-19" style="edgeStyle=orthogonalEdgeStyle;rounded=0;orthogonalLoop=1;jettySize=auto;html=1;exitX=1;exitY=0.5;exitDx=0;exitDy=0;entryX=0;entryY=0.25;entryDx=0;entryDy=0;" edge="1" parent="1" source="wWCb_b6wwUq6npjRhqLN-2" target="wWCb_b6wwUq6npjRhqLN-8">
          <mxGeometry relative="1" as="geometry" />
        </mxCell>
        <mxCell id="wWCb_b6wwUq6npjRhqLN-2" value="&lt;span&gt;utils&lt;/span&gt;" style="whiteSpace=wrap;html=1;rounded=1;shadow=1;labelBackgroundColor=none;strokeWidth=1;fontFamily=Verdana;fontSize=12;align=center;" vertex="1" parent="1">
          <mxGeometry x="360" y="320" width="120" height="60" as="geometry" />
        </mxCell>
        <mxCell id="wWCb_b6wwUq6npjRhqLN-3" value="&lt;span&gt;EfektorInzEntity&amp;nbsp;&lt;/span&gt;" style="whiteSpace=wrap;html=1;rounded=0;shadow=1;labelBackgroundColor=none;strokeWidth=2;fontFamily=Verdana;fontSize=12;align=center;" vertex="1" parent="1">
          <mxGeometry x="600" y="80" width="130" height="40" as="geometry" />
        </mxCell>
        <mxCell id="wWCb_b6wwUq6npjRhqLN-5" value="&lt;span&gt;AmoEntity&lt;/span&gt;" style="whiteSpace=wrap;html=1;rounded=0;shadow=1;labelBackgroundColor=none;strokeWidth=2;fontFamily=Verdana;fontSize=12;align=center;" vertex="1" parent="1">
          <mxGeometry x="600" y="20" width="90" height="40" as="geometry" />
        </mxCell>
        <mxCell id="wWCb_b6wwUq6npjRhqLN-6" value="&lt;span&gt;InputAmoControlller&lt;/span&gt;" style="whiteSpace=wrap;html=1;rounded=0;shadow=1;labelBackgroundColor=none;strokeWidth=2;fontFamily=Verdana;fontSize=12;align=center;" vertex="1" parent="1">
          <mxGeometry x="590" y="440" width="160" height="40" as="geometry" />
        </mxCell>
        <mxCell id="wWCb_b6wwUq6npjRhqLN-7" value="&lt;span&gt;AddMpsDto&lt;/span&gt;" style="whiteSpace=wrap;html=1;rounded=0;shadow=1;labelBackgroundColor=none;strokeWidth=2;fontFamily=Verdana;fontSize=12;align=center;" vertex="1" parent="1">
          <mxGeometry x="590" y="620" width="90" height="40" as="geometry" />
        </mxCell>
        <mxCell id="wWCb_b6wwUq6npjRhqLN-8" value="&lt;span&gt;CountCapacity&lt;/span&gt;" style="whiteSpace=wrap;html=1;rounded=0;shadow=1;labelBackgroundColor=none;strokeWidth=2;fontFamily=Verdana;fontSize=12;align=center;" vertex="1" parent="1">
          <mxGeometry x="590" y="360" width="120" height="40" as="geometry" />
        </mxCell>
        <mxCell id="wWCb_b6wwUq6npjRhqLN-9" value="&lt;span&gt;GetTimestamp&lt;/span&gt;" style="whiteSpace=wrap;html=1;rounded=0;shadow=1;labelBackgroundColor=none;strokeWidth=2;fontFamily=Verdana;fontSize=12;align=center;" vertex="1" parent="1">
          <mxGeometry x="590" y="300" width="120" height="40" as="geometry" />
        </mxCell>
        <mxCell id="wWCb_b6wwUq6npjRhqLN-10" value="&lt;span&gt;SpwService&lt;/span&gt;" style="whiteSpace=wrap;html=1;rounded=0;shadow=1;labelBackgroundColor=none;strokeWidth=2;fontFamily=Verdana;fontSize=12;align=center;" vertex="1" parent="1">
          <mxGeometry x="600" y="210" width="90" height="40" as="geometry" />
        </mxCell>
        <mxCell id="wWCb_b6wwUq6npjRhqLN-11" value="&lt;span&gt;MpsService&lt;/span&gt;" style="whiteSpace=wrap;html=1;rounded=0;shadow=1;labelBackgroundColor=none;strokeWidth=2;fontFamily=Verdana;fontSize=12;align=center;" vertex="1" parent="1">
          <mxGeometry x="600" y="150" width="90" height="40" as="geometry" />
        </mxCell>
        <mxCell id="wWCb_b6wwUq6npjRhqLN-14" style="edgeStyle=orthogonalEdgeStyle;rounded=0;orthogonalLoop=1;jettySize=auto;html=1;entryX=0;entryY=0.633;entryDx=0;entryDy=0;entryPerimeter=0;" edge="1" parent="1" source="62893188c0fa7362-1" target="wWCb_b6wwUq6npjRhqLN-1">
          <mxGeometry relative="1" as="geometry" />
        </mxCell>
        <mxCell id="wWCb_b6wwUq6npjRhqLN-45" style="edgeStyle=orthogonalEdgeStyle;rounded=0;orthogonalLoop=1;jettySize=auto;html=1;exitX=1;exitY=0.5;exitDx=0;exitDy=0;entryX=0;entryY=0.5;entryDx=0;entryDy=0;" edge="1" parent="1" source="wWCb_b6wwUq6npjRhqLN-22" target="wWCb_b6wwUq6npjRhqLN-29">
          <mxGeometry relative="1" as="geometry" />
        </mxCell>
        <mxCell id="wWCb_b6wwUq6npjRhqLN-46" style="edgeStyle=orthogonalEdgeStyle;rounded=0;orthogonalLoop=1;jettySize=auto;html=1;exitX=1;exitY=0.5;exitDx=0;exitDy=0;entryX=0;entryY=0.5;entryDx=0;entryDy=0;" edge="1" parent="1" source="wWCb_b6wwUq6npjRhqLN-22" target="wWCb_b6wwUq6npjRhqLN-32">
          <mxGeometry relative="1" as="geometry" />
        </mxCell>
        <mxCell id="wWCb_b6wwUq6npjRhqLN-22" value="&lt;span&gt;service&lt;/span&gt;" style="whiteSpace=wrap;html=1;rounded=1;shadow=1;labelBackgroundColor=none;strokeWidth=1;fontFamily=Verdana;fontSize=12;align=center;" vertex="1" parent="1">
          <mxGeometry x="380" y="680" width="120" height="60" as="geometry" />
        </mxCell>
        <mxCell id="wWCb_b6wwUq6npjRhqLN-47" style="edgeStyle=orthogonalEdgeStyle;rounded=0;orthogonalLoop=1;jettySize=auto;html=1;exitX=1;exitY=0.5;exitDx=0;exitDy=0;entryX=0;entryY=0.5;entryDx=0;entryDy=0;" edge="1" parent="1" source="wWCb_b6wwUq6npjRhqLN-23" target="wWCb_b6wwUq6npjRhqLN-31">
          <mxGeometry relative="1" as="geometry" />
        </mxCell>
        <mxCell id="wWCb_b6wwUq6npjRhqLN-48" style="edgeStyle=orthogonalEdgeStyle;rounded=0;orthogonalLoop=1;jettySize=auto;html=1;exitX=1;exitY=0.5;exitDx=0;exitDy=0;entryX=0;entryY=0.5;entryDx=0;entryDy=0;" edge="1" parent="1" source="wWCb_b6wwUq6npjRhqLN-23" target="wWCb_b6wwUq6npjRhqLN-30">
          <mxGeometry relative="1" as="geometry" />
        </mxCell>
        <mxCell id="wWCb_b6wwUq6npjRhqLN-23" value="&lt;span&gt;utill&lt;/span&gt;" style="whiteSpace=wrap;html=1;rounded=1;shadow=1;labelBackgroundColor=none;strokeWidth=1;fontFamily=Verdana;fontSize=12;align=center;" vertex="1" parent="1">
          <mxGeometry x="380" y="810" width="120" height="60" as="geometry" />
        </mxCell>
        <mxCell id="wWCb_b6wwUq6npjRhqLN-49" style="edgeStyle=orthogonalEdgeStyle;rounded=0;orthogonalLoop=1;jettySize=auto;html=1;exitX=1;exitY=0.5;exitDx=0;exitDy=0;" edge="1" parent="1" source="wWCb_b6wwUq6npjRhqLN-26" target="wWCb_b6wwUq6npjRhqLN-33">
          <mxGeometry relative="1" as="geometry" />
        </mxCell>
        <mxCell id="wWCb_b6wwUq6npjRhqLN-50" style="edgeStyle=orthogonalEdgeStyle;rounded=0;orthogonalLoop=1;jettySize=auto;html=1;exitX=1;exitY=0.5;exitDx=0;exitDy=0;entryX=0;entryY=0.5;entryDx=0;entryDy=0;" edge="1" parent="1" source="wWCb_b6wwUq6npjRhqLN-26" target="wWCb_b6wwUq6npjRhqLN-34">
          <mxGeometry relative="1" as="geometry" />
        </mxCell>
        <mxCell id="wWCb_b6wwUq6npjRhqLN-26" value="&lt;span&gt;view&lt;/span&gt;" style="whiteSpace=wrap;html=1;rounded=1;shadow=1;labelBackgroundColor=none;strokeWidth=1;fontFamily=Verdana;fontSize=12;align=center;" vertex="1" parent="1">
          <mxGeometry x="380" y="930" width="120" height="60" as="geometry" />
        </mxCell>
        <mxCell id="wWCb_b6wwUq6npjRhqLN-27" value="InputMpsControlller" style="whiteSpace=wrap;html=1;rounded=0;shadow=1;labelBackgroundColor=none;strokeWidth=2;fontFamily=Verdana;fontSize=12;align=center;" vertex="1" parent="1">
          <mxGeometry x="590" y="490" width="160" height="40" as="geometry" />
        </mxCell>
        <mxCell id="wWCb_b6wwUq6npjRhqLN-28" value="&lt;span&gt;GetMpsDto&lt;/span&gt;" style="whiteSpace=wrap;html=1;rounded=0;shadow=1;labelBackgroundColor=none;strokeWidth=2;fontFamily=Verdana;fontSize=12;align=center;" vertex="1" parent="1">
          <mxGeometry x="590" y="560" width="90" height="40" as="geometry" />
        </mxCell>
        <mxCell id="wWCb_b6wwUq6npjRhqLN-29" value="MpsService" style="whiteSpace=wrap;html=1;rounded=0;shadow=1;labelBackgroundColor=none;strokeWidth=2;fontFamily=Verdana;fontSize=12;align=center;" vertex="1" parent="1">
          <mxGeometry x="590" y="680" width="90" height="40" as="geometry" />
        </mxCell>
        <mxCell id="wWCb_b6wwUq6npjRhqLN-30" value="GetSize" style="whiteSpace=wrap;html=1;rounded=0;shadow=1;labelBackgroundColor=none;strokeWidth=2;fontFamily=Verdana;fontSize=12;align=center;" vertex="1" parent="1">
          <mxGeometry x="590" y="880" width="90" height="40" as="geometry" />
        </mxCell>
        <mxCell id="wWCb_b6wwUq6npjRhqLN-31" value="CountSum" style="whiteSpace=wrap;html=1;rounded=0;shadow=1;labelBackgroundColor=none;strokeWidth=2;fontFamily=Verdana;fontSize=12;align=center;" vertex="1" parent="1">
          <mxGeometry x="590" y="820" width="90" height="40" as="geometry" />
        </mxCell>
        <mxCell id="wWCb_b6wwUq6npjRhqLN-32" value="&lt;span&gt;AmoService&lt;/span&gt;" style="whiteSpace=wrap;html=1;rounded=0;shadow=1;labelBackgroundColor=none;strokeWidth=2;fontFamily=Verdana;fontSize=12;align=center;" vertex="1" parent="1">
          <mxGeometry x="590" y="740" width="90" height="40" as="geometry" />
        </mxCell>
        <mxCell id="wWCb_b6wwUq6npjRhqLN-33" value="&lt;span&gt;amo.fxml&lt;/span&gt;" style="whiteSpace=wrap;html=1;rounded=0;shadow=1;labelBackgroundColor=none;strokeWidth=2;fontFamily=Verdana;fontSize=12;align=center;" vertex="1" parent="1">
          <mxGeometry x="590" y="940" width="90" height="40" as="geometry" />
        </mxCell>
        <mxCell id="wWCb_b6wwUq6npjRhqLN-34" value="&lt;span&gt;mps.fxml&lt;/span&gt;" style="whiteSpace=wrap;html=1;rounded=0;shadow=1;labelBackgroundColor=none;strokeWidth=2;fontFamily=Verdana;fontSize=12;align=center;" vertex="1" parent="1">
          <mxGeometry x="590" y="1000" width="90" height="40" as="geometry" />
        </mxCell>
        <mxCell id="wWCb_b6wwUq6npjRhqLN-35" value="&lt;span&gt;Main&lt;/span&gt;" style="whiteSpace=wrap;html=1;rounded=0;shadow=1;labelBackgroundColor=none;strokeWidth=2;fontFamily=Verdana;fontSize=12;align=center;" vertex="1" parent="1">
          <mxGeometry x="380" y="1040" width="90" height="40" as="geometry" />
        </mxCell>
      </root>
    </mxGraphModel>
  </diagram>
</mxfile>
